# xmcd CD database file
#
# Track frame offsets:
#	150
#	11233
#	57159
#	90374
#	114091
#	130383
#
# Disc length: 1782 seconds
#
# Revision: 0
# Processed by: cddbd v1.5.1PL0 Copyright (c) Steve Scherf et al.
# Submitted via: CDex 1.51
#
DISCID=4206f406
DTITLE=AppleProject/PINSIZE Inc. - いもばななや
DYEAR=2004
DGENRE=その他
TTITLE0=れむ/戸惑いemotion
TTITLE1=いもばななや#1
TTITLE2=いもばななや#2
TTITLE3=β1おまけ劇場1 初めてのおかいもの
TTITLE4=β1おまけ劇場2 ノーマナー
TTITLE5=β1おまけ劇場3 最狂アコライト
EXTD=YEAR: 2004
EXTT0=
EXTT1=
EXTT2=
EXTT3=
EXTT4=
EXTT5=
PLAYORDER=
